<?xml version="1.0" encoding="utf-8"?>
<svg version="1.1" id="Layer_1" xmlns="http://www.w3.org/2000/svg" xmlns:xlink="http://www.w3.org/1999/xlink" x="0px" y="0px"
	 viewBox="0 0 48 48" style="enable-background:new 0 0 48 48;" xml:space="preserve">
<style type="text/css">
	#st0{
        fill:#FFFFFF;
        transform
    }
</style>
<path id="st0" d="M15.5,1.6C3.1,6.2-3.1,20.1,1.6,32.5C5.9,44,18.2,50.2,29.8,47.3l-4.7-12.4l5.2-2l4.7,12.4
	C45.7,39.8,50.8,27,46.5,15.5C41.8,3.1,27.9-3.1,15.5,1.6z M27.3,25.4c-0.4,0.9-1.1,1.5-2.1,1.9c-1,0.4-1.9,0.3-2.8-0.1
	c-0.9-0.4-1.5-1.1-1.9-2c-0.4-1-0.3-1.9,0.1-2.8c0.4-0.9,1.1-1.5,2.1-1.9c1-0.4,1.9-0.3,2.8,0c0.9,0.4,1.6,1.1,1.9,2
	C27.8,23.6,27.8,24.5,27.3,25.4z"/>
    
      <animateTransform 
           xlink:href="#st0"
           attributeName="transform" 
           attributeType="XML"
           type="rotate"
           from="0 24 24"
           to="1440 24 24" 
           dur="3.25s"
           repeatCount="indefinite"
       />
    
</svg>
