<?xml version="1.0" encoding="utf-8"?>
<!-- Generator: Adobe Illustrator 19.1.0, SVG Export Plug-In . SVG Version: 6.00 Build 0)  -->
<svg version="1.1" id="Layer_1" xmlns="http://www.w3.org/2000/svg" xmlns:xlink="http://www.w3.org/1999/xlink" x="0px" y="0px"
	 viewBox="0 0 305.7 48" style="enable-background:new 0 0 305.7 48;" xml:space="preserve">
<style type="text/css">
	.st0{fill:#A7CE3A;}
	.st1{fill:#AAAAAA;}
</style>
<path class="st0" d="M15.5,1.6C3.1,6.2-3.1,20.1,1.6,32.5C5.9,44,18.2,50.2,29.8,47.3l-4.7-12.4l5.2-2l4.7,12.4
	C45.7,39.8,50.8,27,46.5,15.5C41.8,3.1,27.9-3.1,15.5,1.6z M27.3,25.4c-0.4,0.9-1.1,1.5-2.1,1.9c-1,0.4-1.9,0.3-2.8-0.1
	c-0.9-0.4-1.5-1.1-1.9-2c-0.4-1-0.3-1.9,0.1-2.8c0.4-0.9,1.1-1.5,2.1-1.9c1-0.4,1.9-0.3,2.8,0c0.9,0.4,1.6,1.1,1.9,2
	C27.8,23.6,27.8,24.5,27.3,25.4z"/>
<g>
	<path class="st1" d="M64,14.4c0,0.6-0.2,1-0.6,1.4c-0.4,0.4-0.9,0.6-1.5,0.6c-0.6,0-1-0.2-1.4-0.6c-0.4-0.4-0.6-0.9-0.6-1.4
		c0-0.6,0.2-1.1,0.6-1.4c0.4-0.4,0.9-0.6,1.4-0.6c0.6,0,1.1,0.2,1.5,0.6C63.8,13.3,64,13.8,64,14.4z M63.5,35.6h-3.1V20h3.1V35.6z"
		/>
	<path class="st1" d="M71.7,20c0,0.4,0.1,0.8,0.1,1.3c0,0.5,0,0.9,0,1.2h0.1c0.2-0.4,0.5-0.8,0.8-1.2c0.3-0.4,0.7-0.7,1.2-1
		c0.4-0.3,0.9-0.5,1.5-0.6c0.5-0.2,1.1-0.2,1.6-0.2c1,0,1.9,0.2,2.6,0.5c0.7,0.3,1.3,0.8,1.8,1.4c0.5,0.6,0.8,1.2,1.1,2
		c0.2,0.8,0.3,1.6,0.3,2.5v9.7h-3.1V27c0-0.6,0-1.2-0.1-1.8c-0.1-0.6-0.3-1.1-0.5-1.5c-0.3-0.4-0.6-0.8-1.1-1.1
		c-0.5-0.3-1.1-0.4-1.8-0.4c-1.2,0-2.2,0.5-3,1.4c-0.8,0.9-1.2,2.2-1.2,3.7v8.3h-3.1V23.4c0-0.4,0-1,0-1.6c0-0.7-0.1-1.2-0.1-1.7
		H71.7z"/>
	<path class="st1" d="M100.6,33.2c-0.6,0.9-1.4,1.7-2.4,2.2c-1,0.5-2.1,0.7-3.2,0.7c-1.2,0-2.3-0.2-3.3-0.6c-1-0.4-1.8-1-2.5-1.8
		C88.5,32.9,88,32,87.6,31c-0.4-1-0.6-2.1-0.6-3.2c0-1.1,0.2-2.2,0.6-3.2c0.4-1,0.9-1.9,1.6-2.6c0.7-0.7,1.5-1.3,2.5-1.7
		c1-0.4,2-0.6,3.2-0.6c1.3,0,2.4,0.3,3.3,0.8c0.9,0.5,1.7,1.2,2.2,2h0.1V10.7h3.1v24.9h-3L100.6,33.2L100.6,33.2z M90.3,27.8
		c0,0.7,0.1,1.4,0.3,2.1c0.2,0.7,0.5,1.3,1,1.8c0.4,0.5,1,0.9,1.6,1.3c0.6,0.3,1.4,0.5,2.2,0.5c0.8,0,1.5-0.2,2.2-0.5
		c0.6-0.3,1.2-0.7,1.7-1.2c0.5-0.5,0.8-1.1,1.1-1.8c0.3-0.7,0.4-1.4,0.4-2.1c0-0.7-0.1-1.5-0.4-2.1c-0.3-0.7-0.6-1.3-1.1-1.8
		c-0.5-0.5-1-0.9-1.7-1.3c-0.6-0.3-1.4-0.5-2.2-0.5c-0.9,0-1.6,0.2-2.2,0.5c-0.6,0.3-1.2,0.7-1.6,1.3c-0.4,0.5-0.8,1.1-1,1.8
		C90.4,26.4,90.3,27.1,90.3,27.8z"/>
	<path class="st1" d="M112.7,14.4c0,0.6-0.2,1-0.6,1.4c-0.4,0.4-0.9,0.6-1.5,0.6c-0.6,0-1-0.2-1.4-0.6c-0.4-0.4-0.6-0.9-0.6-1.4
		c0-0.6,0.2-1.1,0.6-1.4c0.4-0.4,0.9-0.6,1.4-0.6c0.6,0,1.1,0.2,1.5,0.6C112.5,13.3,112.7,13.8,112.7,14.4z M112.2,35.6h-3.1V20h3.1
		V35.6z"/>
	<path class="st1" d="M132.2,27.7c0,0.2,0,0.4,0,0.5c0,0.2,0,0.4,0,0.5h-12.4c0,0.7,0.2,1.3,0.4,1.9c0.3,0.6,0.6,1.1,1.1,1.5
		c0.5,0.4,1,0.8,1.6,1c0.6,0.2,1.2,0.4,1.9,0.4c1.1,0,2-0.2,2.7-0.7c0.8-0.5,1.4-1,1.8-1.7l2.2,1.7c-0.8,1.1-1.8,1.9-3,2.4
		c-1.1,0.5-2.4,0.8-3.8,0.8c-1.2,0-2.3-0.2-3.3-0.6c-1-0.4-1.9-1-2.6-1.7c-0.7-0.7-1.3-1.6-1.7-2.6c-0.4-1-0.6-2.1-0.6-3.4
		c0-1.2,0.2-2.3,0.6-3.3c0.4-1,1-1.9,1.7-2.6c0.7-0.7,1.6-1.3,2.6-1.7c1-0.4,2.1-0.6,3.2-0.6s2.2,0.2,3.1,0.6
		c0.9,0.4,1.7,0.9,2.4,1.6c0.7,0.7,1.2,1.6,1.5,2.6C132,25.3,132.2,26.4,132.2,27.7z M129.1,26.4c0-0.6-0.1-1.2-0.3-1.7
		c-0.2-0.5-0.5-1-0.8-1.4c-0.4-0.4-0.8-0.7-1.4-0.9c-0.5-0.2-1.2-0.3-1.9-0.3c-0.7,0-1.3,0.1-1.9,0.3c-0.6,0.2-1.1,0.5-1.5,0.9
		s-0.8,0.9-1.1,1.4c-0.3,0.5-0.4,1.1-0.5,1.7H129.1z"/>
	<path class="st0" d="M141.4,20.4c0.9-0.6,1.9-0.9,3.1-0.9c1.1,0,2,0.2,2.9,0.7c0.8,0.5,1.5,1.3,2,2.4c0.5-1,1.3-1.8,2.2-2.3
		c0.9-0.5,2-0.8,3.1-0.8c1,0,1.9,0.2,2.6,0.5c0.7,0.3,1.3,0.8,1.8,1.4c0.5,0.6,0.8,1.2,1.1,2c0.2,0.8,0.3,1.6,0.3,2.5v9.7h-3.1V27
		c0-0.6-0.1-1.2-0.2-1.8c-0.1-0.6-0.3-1.1-0.6-1.5c-0.3-0.4-0.6-0.8-1.1-1.1c-0.4-0.3-1-0.4-1.7-0.4c-0.7,0-1.3,0.1-1.8,0.4
		c-0.5,0.3-0.9,0.7-1.2,1.2c-0.3,0.5-0.6,1-0.7,1.6c-0.1,0.6-0.2,1.2-0.2,1.8v8.4h-3.1v-9.3c0-0.6-0.1-1.2-0.2-1.7
		c-0.1-0.5-0.3-0.9-0.6-1.3c-0.3-0.4-0.6-0.6-1-0.9c-0.4-0.2-0.9-0.3-1.6-0.3c-1.1,0-2.1,0.5-2.9,1.4c-0.8,0.9-1.1,2.2-1.1,3.7v8.3
		h-3.1V23.4c0-0.4,0-1,0-1.6c0-0.7-0.1-1.2-0.1-1.7h2.9c0,0.4,0.1,0.8,0.1,1.3c0,0.5,0,0.9,0,1.2h0.1
		C139.9,21.7,140.6,21,141.4,20.4z"/>
	<path class="st0" d="M180.4,27.7c0,0.2,0,0.4,0,0.5c0,0.2,0,0.4,0,0.5h-12.4c0,0.7,0.2,1.3,0.4,1.9c0.3,0.6,0.6,1.1,1.1,1.5
		c0.5,0.4,1,0.8,1.6,1c0.6,0.2,1.2,0.4,1.9,0.4c1.1,0,2-0.2,2.7-0.7c0.8-0.5,1.4-1,1.8-1.7l2.2,1.7c-0.8,1.1-1.8,1.9-3,2.4
		c-1.1,0.5-2.4,0.8-3.8,0.8c-1.2,0-2.3-0.2-3.3-0.6c-1-0.4-1.9-1-2.6-1.7c-0.7-0.7-1.3-1.6-1.7-2.6c-0.4-1-0.6-2.1-0.6-3.4
		c0-1.2,0.2-2.3,0.6-3.3c0.4-1,1-1.9,1.7-2.6c0.7-0.7,1.6-1.3,2.6-1.7c1-0.4,2.1-0.6,3.2-0.6s2.2,0.2,3.1,0.6
		c0.9,0.4,1.7,0.9,2.4,1.6c0.7,0.7,1.2,1.6,1.5,2.6C180.2,25.3,180.4,26.4,180.4,27.7z M177.2,26.4c0-0.6-0.1-1.2-0.3-1.7
		c-0.2-0.5-0.5-1-0.8-1.4c-0.4-0.4-0.8-0.7-1.4-0.9c-0.5-0.2-1.2-0.3-1.9-0.3c-0.7,0-1.3,0.1-1.9,0.3c-0.6,0.2-1.1,0.5-1.5,0.9
		s-0.8,0.9-1.1,1.4c-0.3,0.5-0.4,1.1-0.5,1.7H177.2z"/>
	<path class="st0" d="M184.7,21.8c0-0.7-0.1-1.2-0.1-1.7h2.9c0,0.4,0.1,0.9,0.1,1.4c0,0.5,0,0.9,0,1.3h0.1c0.4-0.9,1.1-1.7,1.9-2.2
		c0.8-0.6,1.8-0.8,2.9-0.8c0.5,0,0.9,0,1.2,0.1l-0.1,2.9c-0.4-0.1-0.9-0.2-1.4-0.2c-0.7,0-1.4,0.1-1.9,0.4c-0.5,0.3-1,0.6-1.4,1.1
		c-0.4,0.5-0.6,1-0.8,1.6c-0.2,0.6-0.3,1.2-0.3,1.9v8.2h-3.1V23.4C184.7,23,184.7,22.4,184.7,21.8z"/>
	<path class="st0" d="M207,24c-0.3-0.5-0.8-0.9-1.5-1.3c-0.7-0.3-1.4-0.5-2.1-0.5c-0.8,0-1.5,0.2-2.2,0.5c-0.6,0.3-1.2,0.7-1.6,1.2
		c-0.4,0.5-0.8,1.1-1,1.8c-0.2,0.7-0.3,1.4-0.3,2.1c0,0.7,0.1,1.5,0.3,2.1c0.2,0.7,0.6,1.3,1,1.8c0.4,0.5,1,0.9,1.6,1.2
		c0.6,0.3,1.4,0.5,2.2,0.5c0.8,0,1.5-0.2,2.2-0.5c0.6-0.3,1.2-0.7,1.6-1.3l2.1,1.9c-0.7,0.8-1.5,1.4-2.5,1.8c-1,0.4-2.1,0.6-3.4,0.6
		c-1.2,0-2.3-0.2-3.3-0.6c-1-0.4-1.9-1-2.7-1.7c-0.7-0.7-1.3-1.6-1.8-2.6c-0.4-1-0.6-2.1-0.6-3.4c0-1.2,0.2-2.4,0.6-3.4
		c0.4-1,1-1.9,1.7-2.6c0.7-0.7,1.6-1.3,2.7-1.7c1-0.4,2.1-0.6,3.3-0.6c1.1,0,2.2,0.2,3.3,0.7c1.1,0.4,2,1.1,2.6,1.9L207,24z"/>
	<path class="st0" d="M215.6,22.4c0.4-0.8,1-1.4,1.9-2c0.9-0.5,1.9-0.8,3-0.8c1,0,1.9,0.2,2.6,0.5c0.7,0.3,1.3,0.8,1.8,1.4
		c0.5,0.6,0.8,1.2,1.1,2c0.2,0.8,0.3,1.6,0.3,2.5v9.7h-3.1V27c0-0.6,0-1.2-0.1-1.8c-0.1-0.6-0.3-1.1-0.5-1.5
		c-0.3-0.4-0.6-0.8-1.1-1.1c-0.5-0.3-1-0.4-1.8-0.4c-1.2,0-2.2,0.5-3,1.4c-0.8,0.9-1.2,2.2-1.2,3.8v8.3h-3.1V10.7h3.1L215.6,22.4
		L215.6,22.4z"/>
	<path class="st1" d="M240.1,24c-0.4-0.6-0.8-1-1.5-1.4c-0.6-0.4-1.4-0.5-2.1-0.5c-0.4,0-0.7,0-1.1,0.1c-0.4,0.1-0.7,0.2-0.9,0.4
		c-0.3,0.2-0.5,0.4-0.7,0.6c-0.2,0.3-0.2,0.6-0.2,0.9c0,0.7,0.3,1.1,0.9,1.5c0.6,0.3,1.5,0.6,2.7,0.9c0.7,0.2,1.4,0.4,2.1,0.6
		c0.6,0.2,1.2,0.5,1.7,0.9c0.5,0.4,0.8,0.8,1.1,1.3c0.3,0.5,0.4,1.1,0.4,1.8c0,0.9-0.2,1.7-0.5,2.3c-0.4,0.6-0.8,1.2-1.4,1.6
		c-0.6,0.4-1.2,0.7-2,0.9c-0.7,0.2-1.5,0.3-2.3,0.3c-1.2,0-2.3-0.2-3.5-0.7c-1.1-0.5-2.1-1.2-2.8-2.1l2.2-1.9c0.4,0.6,1,1.1,1.7,1.6
		c0.7,0.4,1.5,0.6,2.4,0.6c0.4,0,0.8,0,1.1-0.1c0.4-0.1,0.7-0.2,1-0.4c0.3-0.2,0.5-0.4,0.7-0.7c0.2-0.3,0.3-0.6,0.3-1.1
		c0-0.7-0.3-1.3-1-1.6c-0.7-0.4-1.7-0.7-3.1-1c-0.5-0.1-1.1-0.3-1.6-0.5c-0.5-0.2-1-0.4-1.5-0.8c-0.4-0.3-0.8-0.7-1.1-1.2
		c-0.3-0.5-0.4-1.1-0.4-1.8c0-0.8,0.2-1.6,0.5-2.2c0.3-0.6,0.8-1.1,1.3-1.5c0.5-0.4,1.2-0.7,1.9-0.9c0.7-0.2,1.4-0.3,2.2-0.3
		c1.1,0,2.2,0.2,3.2,0.7c1,0.4,1.9,1.1,2.4,1.9L240.1,24z"/>
	<path class="st1" d="M253.9,22.5h-4.2v8.1c0,0.9,0.2,1.6,0.5,2c0.4,0.4,0.9,0.6,1.7,0.6c0.3,0,0.6,0,0.9-0.1
		c0.3-0.1,0.6-0.2,0.9-0.3l0.1,2.5c-0.4,0.1-0.8,0.2-1.2,0.3c-0.5,0.1-0.9,0.1-1.4,0.1c-1.5,0-2.6-0.4-3.4-1.2
		c-0.8-0.8-1.2-2-1.2-3.7v-8.5h-3V20h3v-4.5h3.1V20h4.2V22.5z"/>
	<path class="st1" d="M273,27.8c0,1.2-0.2,2.3-0.6,3.3c-0.4,1-1,1.9-1.8,2.6c-0.8,0.7-1.7,1.3-2.7,1.7c-1,0.4-2.1,0.6-3.3,0.6
		c-1.2,0-2.3-0.2-3.3-0.6c-1-0.4-1.9-1-2.7-1.7c-0.7-0.7-1.3-1.6-1.8-2.6c-0.4-1-0.6-2.1-0.6-3.3c0-1.2,0.2-2.3,0.6-3.3
		c0.4-1,1-1.9,1.8-2.6c0.7-0.7,1.6-1.3,2.7-1.7c1-0.4,2.1-0.6,3.3-0.6c1.2,0,2.3,0.2,3.3,0.6c1,0.4,1.9,1,2.7,1.7
		c0.8,0.7,1.4,1.6,1.8,2.6C272.8,25.5,273,26.6,273,27.8z M269.7,27.8c0-0.7-0.1-1.5-0.3-2.1c-0.2-0.7-0.6-1.3-1-1.8
		c-0.4-0.5-1-0.9-1.6-1.2c-0.7-0.3-1.4-0.5-2.2-0.5c-0.8,0-1.6,0.2-2.2,0.5c-0.7,0.3-1.2,0.7-1.6,1.2c-0.4,0.5-0.8,1.1-1,1.8
		c-0.2,0.7-0.3,1.4-0.3,2.1c0,0.7,0.1,1.5,0.3,2.1c0.2,0.7,0.6,1.3,1,1.8c0.4,0.5,1,0.9,1.6,1.2c0.7,0.3,1.4,0.5,2.2,0.5
		c0.8,0,1.6-0.2,2.2-0.5c0.7-0.3,1.2-0.7,1.6-1.2c0.4-0.5,0.8-1.1,1-1.8C269.6,29.3,269.7,28.6,269.7,27.8z"/>
	<path class="st1" d="M277.2,21.8c0-0.7-0.1-1.2-0.1-1.7h2.9c0,0.4,0.1,0.9,0.1,1.4c0,0.5,0,0.9,0,1.3h0.1c0.4-0.9,1.1-1.7,1.9-2.2
		c0.8-0.6,1.8-0.8,2.9-0.8c0.5,0,0.9,0,1.2,0.1l-0.1,2.9c-0.4-0.1-0.9-0.2-1.4-0.2c-0.7,0-1.4,0.1-1.9,0.4c-0.5,0.3-1,0.6-1.4,1.1
		c-0.4,0.5-0.6,1-0.8,1.6c-0.2,0.6-0.3,1.2-0.3,1.9v8.2h-3.1V23.4C277.3,23,277.2,22.4,277.2,21.8z"/>
	<path class="st1" d="M303.2,27.7c0,0.2,0,0.4,0,0.5c0,0.2,0,0.4,0,0.5h-12.4c0,0.7,0.2,1.3,0.4,1.9c0.3,0.6,0.6,1.1,1.1,1.5
		c0.5,0.4,1,0.8,1.6,1c0.6,0.2,1.2,0.4,1.9,0.4c1.1,0,2-0.2,2.7-0.7c0.8-0.5,1.4-1,1.8-1.7l2.2,1.7c-0.8,1.1-1.8,1.9-3,2.4
		c-1.1,0.5-2.4,0.8-3.8,0.8c-1.2,0-2.3-0.2-3.3-0.6c-1-0.4-1.9-1-2.6-1.7c-0.7-0.7-1.3-1.6-1.7-2.6c-0.4-1-0.6-2.1-0.6-3.4
		c0-1.2,0.2-2.3,0.6-3.3c0.4-1,1-1.9,1.7-2.6c0.7-0.7,1.6-1.3,2.6-1.7c1-0.4,2.1-0.6,3.2-0.6c1.1,0,2.2,0.2,3.1,0.6
		c0.9,0.4,1.7,0.9,2.4,1.6c0.6,0.7,1.2,1.6,1.5,2.6C303.1,25.3,303.2,26.4,303.2,27.7z M300.1,26.4c0-0.6-0.1-1.2-0.3-1.7
		c-0.2-0.5-0.5-1-0.8-1.4c-0.4-0.4-0.8-0.7-1.4-0.9c-0.5-0.2-1.2-0.3-1.9-0.3c-0.7,0-1.3,0.1-1.9,0.3c-0.6,0.2-1.1,0.5-1.5,0.9
		c-0.4,0.4-0.8,0.9-1.1,1.4c-0.3,0.5-0.4,1.1-0.5,1.7H300.1z"/>
</g>
</svg>
